<svg xmlns="http://www.w3.org/2000/svg" xmlns:xlink="http://www.w3.org/1999/xlink" width="509.03" height="484.35" viewBox="0 0 509.03 484.35">
  <defs>
    <linearGradient id="a" x1="386.8" y1="55.78" x2="100.98" y2="341.6" gradientUnits="userSpaceOnUse">
      <stop offset="0.1" stop-color="#9055f7"/>
      <stop offset="0.25" stop-color="#7950f5"/>
      <stop offset="0.49" stop-color="#5c49f3"/>
      <stop offset="0.69" stop-color="#4a44f1"/>
      <stop offset="0.84" stop-color="#4443f1"/>
    </linearGradient>
    <linearGradient id="b" x1="383.37" y1="60.45" x2="97.55" y2="346.27" xlink:href="#a"/>
    <linearGradient id="c" x1="527.49" y1="459.63" x2="-16.4" y2="463.61" xlink:href="#a"/>
    <linearGradient id="d" x1="527.5" y1="460.66" x2="-16.39" y2="464.63" xlink:href="#a"/>
    <linearGradient id="e" x1="527.5" y1="460.37" x2="-16.39" y2="464.35" xlink:href="#a"/>
    <linearGradient id="f" x1="527.5" y1="460.72" x2="-16.39" y2="464.7" xlink:href="#a"/>
    <linearGradient id="g" x1="527.5" y1="461.1" x2="-16.39" y2="465.08" xlink:href="#a"/>
    <linearGradient id="h" x1="527.51" y1="461.51" x2="-16.38" y2="465.49" xlink:href="#a"/>
    <linearGradient id="i" x1="527.51" y1="461.91" x2="-16.38" y2="465.89" xlink:href="#a"/>
    <linearGradient id="j" x1="527.51" y1="462.33" x2="-16.38" y2="466.3" xlink:href="#a"/>
    <linearGradient id="k" x1="527.51" y1="462.54" x2="-16.37" y2="466.52" xlink:href="#a"/>
    <linearGradient id="l" x1="527.52" y1="462.81" x2="-16.37" y2="466.79" xlink:href="#a"/>
    <linearGradient id="m" x1="527.52" y1="463.14" x2="-16.37" y2="467.12" xlink:href="#a"/>
  </defs>
  <g>
    <path d="M352.44,217c22.16-10.12,54.45-24.63,76.77-34.67-24.07-5.06-58.07-10.92-82.37-15.61,15.59-17.88,38.84-45.89,54.35-64.64-23.67,6.09-57.38,15.23-81.15,21.71,6.71-23.8,15.34-58.5,21.31-82C322.73,57.64,295.61,81.47,277.14,97c-4.2-23.48-10.91-59.31-15.81-83.06-10.26,22.33-24.55,55.16-34.42,77.45-14.47-19.42-35.08-47.77-50-67.79.71,24.46,1.48,60,2.28,84.48-21.68-11.15-52.7-27.75-74.46-38.57.13.29,55.34,55.85,55.34,55.85.24-.25.47-.52.72-.77A112.86,112.86,0,0,1,320,123.81,113.14,113.14,0,0,1,319.19,283c-.25.25-.31.28-.56.53,0,0,54.32,54,54.62,54.14-10.74-22-27.05-51.29-37.48-73,24.34.8,58.53,1.2,83,1.67C398.5,251.34,371.85,232.07,352.44,217Z" transform="translate(-1.1 -13.89)" style="fill: url(#a)"/>
    <path d="M240.77,101.9c-55,0-100.38,44.76-101.09,99.81V346l37,37V202.28l0-.79c.81-34.51,29.55-62.58,64.06-62.58a64.09,64.09,0,0,1,18.44,125.48V223.86L222.31,187l-.12,117.16,18.42,0v0h.82c55.39-.36,100.45-45.72,100.45-101.11A101.22,101.22,0,0,0,240.77,101.9Z" transform="translate(-1.1 -13.89)" style="fill: url(#b)"/>
  </g>
  <g>
    <path d="M1.1,430H18.61a41.2,41.2,0,0,1,10.92,1.11,12.28,12.28,0,0,1,5.74,3.22,11.08,11.08,0,0,1,2.6,5.1,45.16,45.16,0,0,1,.69,9.27v5.83q0,6.39-1.33,9.33a9,9,0,0,1-4.85,4.5,23,23,0,0,1-9.23,1.57H18.49v26.92H1.1Zm17.39,11.44v17c.49,0,.92,0,1.28,0a4,4,0,0,0,3.32-1.18q.93-1.17.93-4.89v-5.49c0-2.29-.36-3.77-1.07-4.46S20.75,441.43,18.49,441.43Z" transform="translate(-1.1 -13.89)" style="fill: url(#c)"/>
    <path d="M83.92,430v44.68a77.36,77.36,0,0,1-.5,10.67,14.53,14.53,0,0,1-2.93,6.32,15.19,15.19,0,0,1-6.42,4.91,24.1,24.1,0,0,1-9.4,1.67,26.47,26.47,0,0,1-10.57-2,15.89,15.89,0,0,1-6.85-5.16,14.31,14.31,0,0,1-2.69-6.71q-.41-3.52-.41-14.84V430H61.54v50.13a19.64,19.64,0,0,0,.47,5.59,1.87,1.87,0,0,0,1.92,1.22,2,2,0,0,0,2.13-1.34,25.46,25.46,0,0,0,.47-6.34V430Z" transform="translate(-1.1 -13.89)" style="fill: url(#d)"/>
    <path d="M130.31,430v66.85H115.07l-9-30.39v30.39H91.49V430H106l9.74,30.1V430Z" transform="translate(-1.1 -13.89)" style="fill: url(#e)"/>
    <path d="M179.57,430l-10,30.18,10.92,36.67h-18l-7-28.66v28.66H138.13V430h17.39v26l7.74-26Z" transform="translate(-1.1 -13.89)" style="fill: url(#f)"/>
    <path d="M200.11,430h13q12.58,0,17,1.15a13.05,13.05,0,0,1,6.75,3.8,12,12,0,0,1,2.89,5.89,88.05,88.05,0,0,1,.58,12.74V477q0,9-.84,12a9,9,0,0,1-3,4.74,12.14,12.14,0,0,1-5.2,2.4,47.36,47.36,0,0,1-9.33.68H200.11Zm17.39,11.44v44q3.75,0,4.62-1.5t.87-8.2v-26a35.3,35.3,0,0,0-.29-5.83,2.79,2.79,0,0,0-1.32-1.88A8.77,8.77,0,0,0,217.5,441.43Z" transform="translate(-1.1 -13.89)" style="fill: url(#g)"/>
    <path d="M287.43,469.13q0,10.08-.48,14.27a16,16,0,0,1-9.72,13,24.58,24.58,0,0,1-9.91,1.85,25.22,25.22,0,0,1-9.65-1.75,16.07,16.07,0,0,1-10-12.9,141.89,141.89,0,0,1-.49-14.46V457.7q0-10.08.47-14.27a16,16,0,0,1,9.72-13,24.59,24.59,0,0,1,9.92-1.86,25.21,25.21,0,0,1,9.64,1.76,16.07,16.07,0,0,1,10,12.9,141,141,0,0,1,.5,14.46Zm-17.39-22c0-3.12-.17-5.1-.52-6a2,2,0,0,0-2.12-1.3,2.38,2.38,0,0,0-2.09,1.05q-.72,1.05-.72,6.22v31.21q0,5.82.47,7.19a2.08,2.08,0,0,0,2.21,1.36,2.15,2.15,0,0,0,2.28-1.57c.33-1,.49-3.54.49-7.47Z" transform="translate(-1.1 -13.89)" style="fill: url(#h)"/>
    <path d="M348.39,430v66.85H333.2l0-45.13-6.05,45.13H316.35L310,452.74l0,44.1h-15.2V430h22.5q1,6,2.06,14.21l2.47,17,4-31.22Z" transform="translate(-1.1 -13.89)" style="fill: url(#i)"/>
    <path d="M386.27,430l9.94,66.85H378.44l-.93-12h-6.22l-1,12h-18L361.14,430Zm-9.22,43q-1.31-11.36-2.64-28.08-2.66,19.22-3.34,28.08Z" transform="translate(-1.1 -13.89)" style="fill: url(#j)"/>
    <path d="M417.39,430v66.85H400V430Z" transform="translate(-1.1 -13.89)" style="fill: url(#k)"/>
    <path d="M464,430v66.85H448.79l-9-30.39v30.39H425.22V430h14.53l9.75,30.1V430Z" transform="translate(-1.1 -13.89)" style="fill: url(#l)"/>
    <path d="M508.69,450.22H492.54v-5c0-2.32-.2-3.79-.62-4.42a2.26,2.26,0,0,0-2.06-1,2.6,2.6,0,0,0-2.37,1.28,7.38,7.38,0,0,0-.81,3.88,10.89,10.89,0,0,0,.91,5c.57,1.13,2.21,2.5,4.91,4.09q11.61,6.88,14.62,11.31c2,2.95,3,7.69,3,14.25q0,7.14-1.67,10.53c-1.11,2.25-3.27,4.15-6.46,5.67a25.52,25.52,0,0,1-11.15,2.29,24.94,24.94,0,0,1-11.91-2.64q-4.94-2.64-6.46-6.73T471,477.27v-4.38h16.14V481c0,2.5.23,4.11.68,4.83a2.66,2.66,0,0,0,2.42,1.07,2.82,2.82,0,0,0,2.58-1.36,7.73,7.73,0,0,0,.85-4.05q0-5.91-1.61-7.72t-8.14-6.07a79.46,79.46,0,0,1-8.59-6.24,14.71,14.71,0,0,1-3.49-5.36,23.73,23.73,0,0,1-1.38-8.76q0-7.68,2-11.23a13.16,13.16,0,0,1,6.34-5.55,25.2,25.2,0,0,1,10.57-2,27.5,27.5,0,0,1,11.54,2.19q4.77,2.19,6.32,5.51t1.55,11.3Z" transform="translate(-1.1 -13.89)" style="fill: url(#m)"/>
  </g>
</svg>
