<svg xmlns="http://www.w3.org/2000/svg" xmlns:xlink="http://www.w3.org/1999/xlink" width="430" height="489.17" viewBox="0 0 430 489.17">
  <defs>
    <linearGradient id="a" x1="370.09" y1="117.61" x2="-19.16" y2="460.81" gradientUnits="userSpaceOnUse">
      <stop offset="0.2" stop-color="#9055f7"/>
      <stop offset="0.51" stop-color="#6b4cf4"/>
      <stop offset="0.75" stop-color="#5346f2"/>
    </linearGradient>
    <linearGradient id="b" x1="309.12" y1="161.59" x2="26.5" y2="444.2" gradientUnits="userSpaceOnUse">
      <stop offset="0.1" stop-color="#9055f7"/>
      <stop offset="0.25" stop-color="#7950f5"/>
      <stop offset="0.49" stop-color="#5c49f3"/>
      <stop offset="0.69" stop-color="#4a44f1"/>
      <stop offset="0.84" stop-color="#4443f1"/>
    </linearGradient>
  </defs>
  <g>
    <path d="M362.93,274.26c29.36-13.41,72.16-32.65,101.74-45.94-31.89-6.71-77-14.48-109.16-20.7,20.65-23.7,51.46-60.82,72-85.67-31.37,8.07-76,20.18-107.55,28.77,8.9-31.54,20.34-77.53,28.24-108.71-24.67,21.05-60.62,52.64-85.09,73.15-5.58-31.12-14.46-78.61-21-110.08-13.6,29.6-32.53,73.11-45.62,102.66C177.37,82,150.06,44.42,130.34,17.88c.94,32.42,2,79.46,3,112-28.73-14.78-69.85-36.78-98.69-51.12.18.39,73.34,74,73.34,74,.33-.33.63-.68,1-1a149.62,149.62,0,0,1,211-1,149.94,149.94,0,0,1-1.08,211c-.33.33-.4.37-.73.7,0,0,72,71.57,72.38,71.75-14.23-29.12-35.85-68-49.67-96.73,32.26,1.06,77.57,1.59,110,2.22C424,319.79,388.65,294.24,362.93,274.26Z" transform="translate(-34.67 -5.08)" style="fill: url(#a)"/>
    <path d="M214.92,121.72c-72.94,0-133,59.33-134,132.29v191.2l49,49V254.77l0-1.06c1.08-45.72,39.17-82.93,84.9-82.93a85,85,0,0,1,24.44,166.31V283.36l-48.89-48.89-.16,155.28,24.41-.05v0h1.09c73.41-.47,133.13-60.58,133.13-134C348.93,181.84,288.82,121.72,214.92,121.72Z" transform="translate(-34.67 -5.08)" style="fill: url(#b)"/>
  </g>
</svg>
